<svg width="46" height="47" viewBox="0 0 46 47" fill="none" xmlns="http://www.w3.org/2000/svg">
<path d="M33.8906 0.878052C23.3845 0.878052 14.6859 8.10804 12.2006 17.8233H1.41211L0 23.4718H11.3533C11.3533 25.4487 11.7487 27.3127 12.2571 29.1202H1.12969L0.0564843 34.7686H14.5165C18.4704 41.4902 25.6439 46.0655 33.9471 46.0655C38.0704 46.0655 41.9113 44.8793 45.2439 42.9023V36.0113C42.2502 38.7225 38.3528 40.417 33.9471 40.417C28.92 40.417 24.5142 38.2142 21.4075 34.7686H33.9471L34.8508 29.1202H18.075C17.4536 27.3127 17.0018 25.5052 17.0018 23.4718H35.8675L36.7713 17.8233H18.075C20.3908 11.2712 26.6041 6.52648 33.9471 6.52648C37.675 6.52648 41.0641 7.71265 43.8318 9.6896L44.7355 3.70227C41.5159 1.95125 37.9009 0.878052 33.9471 0.878052H33.8906Z" fill="#7600D2"/>
</svg>
