<svg width="121" height="52" viewBox="0 0 121 52" fill="none" xmlns="http://www.w3.org/2000/svg">
<path d="M53.3255 28.5647H54.8275H56.3373V27.0588V25.5529H54.8275H53.3255V27.0588V28.5647ZM55.2078 28.5647H56.7098H58.2196V27.0588V25.5529H56.7098H55.2078V27.0588V28.5647ZM57.0902 28.5647H58.5922H60.102V27.0588V25.5529H58.5922H57.0902V27.0588V28.5647ZM58.9725 28.5647H60.4745H61.9843V27.0588V25.5529H60.4745H58.9725V27.0588V28.5647ZM53.3255 26.6824H54.8275H56.3373V25.1765V23.6706H54.8275H53.3255V25.1765V26.6824ZM60.8549 26.6824H62.3569H63.8667V25.1765V23.6706H62.3569H60.8549V25.1765V26.6824ZM53.3255 24.8H54.8275H56.3373V23.2941V21.7882H54.8275H53.3255V23.2941V24.8ZM60.8549 24.8H62.3569H63.8667V23.2941V21.7882H62.3569H60.8549V23.2941V24.8ZM53.3255 22.9176H54.8275H56.3373V21.4118V19.9059H54.8275H53.3255V21.4118V22.9176ZM60.8549 22.9176H62.3569H63.8667V21.4118V19.9059H62.3569H60.8549V21.4118V22.9176ZM53.3255 21.0353H54.8275H56.3373V19.5294V18.0235H54.8275H53.3255V19.5294V21.0353ZM60.8549 21.0353H62.3569H63.8667V19.5294V18.0235H62.3569H60.8549V19.5294V21.0353ZM53.3255 19.1529H54.8275H56.3373V17.6471V16.1412H54.8275H53.3255V17.6471V19.1529ZM55.2078 19.1529H56.7098H58.2196V17.6471V16.1412H56.7098H55.2078V17.6471V19.1529ZM57.0902 19.1529H58.5922H60.102V17.6471V16.1412H58.5922H57.0902V17.6471V19.1529ZM58.9725 19.1529H60.4745H61.9843V17.6471V16.1412H60.4745H58.9725V17.6471V19.1529ZM53.3255 17.2706H54.8275H56.3373V15.7647V14.2588H54.8275H53.3255V15.7647V17.2706ZM60.8549 17.2706H62.3569H63.8667V15.7647V14.2588H62.3569H60.8549V15.7647V17.2706ZM53.3255 15.3882H54.8275H56.3373V13.8824V12.3765H54.8275H53.3255V13.8824V15.3882ZM60.8549 15.3882H62.3569H63.8667V13.8824V12.3765H62.3569H60.8549V13.8824V15.3882ZM53.3255 13.5059H54.8275H56.3373V12V10.4941H54.8275H53.3255V12V13.5059ZM60.8549 13.5059H62.3569H63.8667V12V10.4941H62.3569H60.8549V12V13.5059ZM53.3255 11.6235H54.8275H56.3373V10.1176V8.61176H54.8275H53.3255V10.1176V11.6235ZM60.8549 11.6235H62.3569H63.8667V10.1176V8.61176H62.3569H60.8549V10.1176V11.6235ZM53.3255 9.74117H54.8275H56.3373V8.23529V6.72941H54.8275H53.3255V8.23529V9.74117ZM55.2078 9.74117H56.7098H58.2196V8.23529V6.72941H56.7098H55.2078V8.23529V9.74117ZM57.0902 9.74117H58.5922H60.102V8.23529V6.72941H58.5922H57.0902V8.23529V9.74117ZM58.9725 9.74117H60.4745H61.9843V8.23529V6.72941H60.4745H58.9725V8.23529V9.74117ZM66.513 28.5647H68.015H69.5248V27.0588V25.5529H68.015H66.513V27.0588V28.5647ZM68.3953 28.5647H69.8973H71.4071V27.0588V25.5529H69.8973H68.3953V27.0588V28.5647ZM70.2777 28.5647H71.7797H73.2895V27.0588V25.5529H71.7797H70.2777V27.0588V28.5647ZM72.16 28.5647H73.662H75.1718V27.0588V25.5529H73.662H72.16V27.0588V28.5647ZM66.513 26.6824H68.015H69.5248V25.1765V23.6706H68.015H66.513V25.1765V26.6824ZM66.513 24.8H68.015H69.5248V23.2941V21.7882H68.015H66.513V23.2941V24.8ZM66.513 22.9176H68.015H69.5248V21.4118V19.9059H68.015H66.513V21.4118V22.9176ZM66.513 21.0353H68.015H69.5248V19.5294V18.0235H68.015H66.513V19.5294V21.0353ZM66.513 19.1529H68.015H69.5248V17.6471V16.1412H68.015H66.513V17.6471V19.1529ZM66.513 17.2706H68.015H69.5248V15.7647V14.2588H68.015H66.513V15.7647V17.2706ZM66.513 15.3882H68.015H69.5248V13.8824V12.3765H68.015H66.513V13.8824V15.3882ZM66.513 13.5059H68.015H69.5248V12V10.4941H68.015H66.513V12V13.5059ZM66.513 11.6235H68.015H69.5248V10.1176V8.61176H68.015H66.513V10.1176V11.6235ZM66.513 9.74117H68.015H69.5248V8.23529V6.72941H68.015H66.513V8.23529V9.74117ZM75.9156 28.5647H77.4175H78.9273V27.0588V25.5529H77.4175H75.9156V27.0588V28.5647ZM77.7979 28.5647H79.2999H80.8097V27.0588V25.5529H79.2999H77.7979V27.0588V28.5647ZM79.6803 28.5647H81.1822H82.692V27.0588V25.5529H81.1822H79.6803V27.0588V28.5647ZM77.7979 26.6824H79.2999H80.8097V25.1765V23.6706H79.2999H77.7979V25.1765V26.6824ZM77.7979 24.8H79.2999H80.8097V23.2941V21.7882H79.2999H77.7979V23.2941V24.8ZM77.7979 22.9176H79.2999H80.8097V21.4118V19.9059H79.2999H77.7979V21.4118V22.9176ZM77.7979 21.0353H79.2999H80.8097V19.5294V18.0235H79.2999H77.7979V19.5294V21.0353ZM77.7979 19.1529H79.2999H80.8097V17.6471V16.1412H79.2999H77.7979V17.6471V19.1529ZM77.7979 17.2706H79.2999H80.8097V15.7647V14.2588H79.2999H77.7979V15.7647V17.2706ZM77.7979 15.3882H79.2999H80.8097V13.8824V12.3765H79.2999H77.7979V13.8824V15.3882ZM77.7979 13.5059H79.2999H80.8097V12V10.4941H79.2999H77.7979V12V13.5059ZM77.7979 11.6235H79.2999H80.8097V10.1176V8.61176H79.2999H77.7979V10.1176V11.6235ZM75.9156 9.74117H77.4175H78.9273V8.23529V6.72941H77.4175H75.9156V8.23529V9.74117ZM77.7979 9.74117H79.2999H80.8097V8.23529V6.72941H79.2999H77.7979V8.23529V9.74117ZM79.6803 9.74117H81.1822H82.692V8.23529V6.72941H81.1822H79.6803V8.23529V9.74117ZM86.2703 28.5647H87.7723H89.2821V27.0588V25.5529H87.7723H86.2703V27.0588V28.5647ZM88.1527 28.5647H89.6547H91.1645V27.0588V25.5529H89.6547H88.1527V27.0588V28.5647ZM90.035 28.5647H91.537H93.0468V27.0588V25.5529H91.537H90.035V27.0588V28.5647ZM84.388 26.6824H85.89H87.3998V25.1765V23.6706H85.89H84.388V25.1765V26.6824ZM91.9174 26.6824H93.4194H94.9292V25.1765V23.6706H93.4194H91.9174V25.1765V26.6824ZM84.388 24.8H85.89H87.3998V23.2941V21.7882H85.89H84.388V23.2941V24.8ZM91.9174 24.8H93.4194H94.9292V23.2941V21.7882H93.4194H91.9174V23.2941V24.8ZM84.388 22.9176H85.89H87.3998V21.4118V19.9059H85.89H84.388V21.4118V22.9176ZM91.9174 22.9176H93.4194H94.9292V21.4118V19.9059H93.4194H91.9174V21.4118V22.9176ZM90.035 21.0353H91.537H93.0468V19.5294V18.0235H91.537H90.035V19.5294V21.0353ZM88.1527 19.1529H89.6547H91.1645V17.6471V16.1412H89.6547H88.1527V17.6471V19.1529ZM86.2703 17.2706H87.7723H89.2821V15.7647V14.2588H87.7723H86.2703V15.7647V17.2706ZM84.388 15.3882H85.89H87.3998V13.8824V12.3765H85.89H84.388V13.8824V15.3882ZM84.388 13.5059H85.89H87.3998V12V10.4941H85.89H84.388V12V13.5059ZM91.9174 13.5059H93.4194H94.9292V12V10.4941H93.4194H91.9174V12V13.5059ZM84.388 11.6235H85.89H87.3998V10.1176V8.61176H85.89H84.388V10.1176V11.6235ZM91.9174 11.6235H93.4194H94.9292V10.1176V8.61176H93.4194H91.9174V10.1176V11.6235ZM86.2703 9.74117H87.7723H89.2821V8.23529V6.72941H87.7723H86.2703V8.23529V9.74117ZM88.1527 9.74117H89.6547H91.1645V8.23529V6.72941H89.6547H88.1527V8.23529V9.74117ZM90.035 9.74117H91.537H93.0468V8.23529V6.72941H91.537H90.035V8.23529V9.74117ZM99.4578 28.5647H100.96H102.47V27.0588V25.5529H100.96H99.4578V27.0588V28.5647ZM101.34 28.5647H102.842H104.352V27.0588V25.5529H102.842H101.34V27.0588V28.5647ZM103.223 28.5647H104.725H106.234V27.0588V25.5529H104.725H103.223V27.0588V28.5647ZM97.5755 26.6824H99.0775H100.587V25.1765V23.6706H99.0775H97.5755V25.1765V26.6824ZM105.105 26.6824H106.607H108.117V25.1765V23.6706H106.607H105.105V25.1765V26.6824ZM97.5755 24.8H99.0775H100.587V23.2941V21.7882H99.0775H97.5755V23.2941V24.8ZM105.105 24.8H106.607H108.117V23.2941V21.7882H106.607H105.105V23.2941V24.8ZM97.5755 22.9176H99.0775H100.587V21.4118V19.9059H99.0775H97.5755V21.4118V22.9176ZM105.105 22.9176H106.607H108.117V21.4118V19.9059H106.607H105.105V21.4118V22.9176ZM103.223 21.0353H104.725H106.234V19.5294V18.0235H104.725H103.223V19.5294V21.0353ZM101.34 19.1529H102.842H104.352V17.6471V16.1412H102.842H101.34V17.6471V19.1529ZM99.4578 17.2706H100.96H102.47V15.7647V14.2588H100.96H99.4578V15.7647V17.2706ZM97.5755 15.3882H99.0775H100.587V13.8824V12.3765H99.0775H97.5755V13.8824V15.3882ZM97.5755 13.5059H99.0775H100.587V12V10.4941H99.0775H97.5755V12V13.5059ZM105.105 13.5059H106.607H108.117V12V10.4941H106.607H105.105V12V13.5059ZM97.5755 11.6235H99.0775H100.587V10.1176V8.61176H99.0775H97.5755V10.1176V11.6235ZM105.105 11.6235H106.607H108.117V10.1176V8.61176H106.607H105.105V10.1176V11.6235ZM99.4578 9.74117H100.96H102.47V8.23529V6.72941H100.96H99.4578V8.23529V9.74117ZM101.34 9.74117H102.842H104.352V8.23529V6.72941H102.842H101.34V8.23529V9.74117ZM103.223 9.74117H104.725H106.234V8.23529V6.72941H104.725H103.223V8.23529V9.74117Z" fill="#0BAC9B"/>
<path d="M54.2511 45.8433H55.2394H56.2276V44.8551V43.8669H55.2394H54.2511V44.8551V45.8433ZM55.6629 45.8433H56.6511H57.6394V44.8551V43.8669H56.6511H55.6629V44.8551V45.8433ZM57.0747 45.8433H58.0629H59.0511V44.8551V43.8669H58.0629H57.0747V44.8551V45.8433ZM52.8394 44.4316H53.8276H54.8159V43.4433V42.4551H53.8276H52.8394V43.4433V44.4316ZM58.4864 44.4316H59.4747H60.4629V43.4433V42.4551H59.4747H58.4864V43.4433V44.4316ZM52.8394 43.0198H53.8276H54.8159V42.0316V41.0433H53.8276H52.8394V42.0316V43.0198ZM52.8394 41.608H53.8276H54.8159V40.6198V39.6316H53.8276H52.8394V40.6198V41.608ZM52.8394 40.1963H53.8276H54.8159V39.208V38.2198H53.8276H52.8394V39.208V40.1963ZM52.8394 38.7845H53.8276H54.8159V37.7963V36.808H53.8276H52.8394V37.7963V38.7845ZM52.8394 37.3727H53.8276H54.8159V36.3845V35.3963H53.8276H52.8394V36.3845V37.3727ZM58.4864 37.3727H59.4747H60.4629V36.3845V35.3963H59.4747H58.4864V36.3845V37.3727ZM54.2511 35.961H55.2394H56.2276V34.9727V33.9845H55.2394H54.2511V34.9727V35.961ZM55.6629 35.961H56.6511H57.6394V34.9727V33.9845H56.6511H55.6629V34.9727V35.961ZM57.0747 35.961H58.0629H59.0511V34.9727V33.9845H58.0629H57.0747V34.9727V35.961ZM63.4386 45.8433H64.4269H65.4151V44.8551V43.8669H64.4269H63.4386V44.8551V45.8433ZM64.8504 45.8433H65.8386H66.8269V44.8551V43.8669H65.8386H64.8504V44.8551V45.8433ZM66.2622 45.8433H67.2504H68.2386V44.8551V43.8669H67.2504H66.2622V44.8551V45.8433ZM62.0269 44.4316H63.0151H64.0034V43.4433V42.4551H63.0151H62.0269V43.4433V44.4316ZM67.6739 44.4316H68.6622H69.6504V43.4433V42.4551H68.6622H67.6739V43.4433V44.4316ZM62.0269 43.0198H63.0151H64.0034V42.0316V41.0433H63.0151H62.0269V42.0316V43.0198ZM67.6739 43.0198H68.6622H69.6504V42.0316V41.0433H68.6622H67.6739V42.0316V43.0198ZM62.0269 41.608H63.0151H64.0034V40.6198V39.6316H63.0151H62.0269V40.6198V41.608ZM67.6739 41.608H68.6622H69.6504V40.6198V39.6316H68.6622H67.6739V40.6198V41.608ZM62.0269 40.1963H63.0151H64.0034V39.208V38.2198H63.0151H62.0269V39.208V40.1963ZM67.6739 40.1963H68.6622H69.6504V39.208V38.2198H68.6622H67.6739V39.208V40.1963ZM62.0269 38.7845H63.0151H64.0034V37.7963V36.808H63.0151H62.0269V37.7963V38.7845ZM67.6739 38.7845H68.6622H69.6504V37.7963V36.808H68.6622H67.6739V37.7963V38.7845ZM62.0269 37.3727H63.0151H64.0034V36.3845V35.3963H63.0151H62.0269V36.3845V37.3727ZM67.6739 37.3727H68.6622H69.6504V36.3845V35.3963H68.6622H67.6739V36.3845V37.3727ZM63.4386 35.961H64.4269H65.4151V34.9727V33.9845H64.4269H63.4386V34.9727V35.961ZM64.8504 35.961H65.8386H66.8269V34.9727V33.9845H65.8386H64.8504V34.9727V35.961ZM66.2622 35.961H67.2504H68.2386V34.9727V33.9845H67.2504H66.2622V34.9727V35.961ZM71.9175 45.8433H72.9057H73.894V44.8551V43.8669H72.9057H71.9175V44.8551V45.8433ZM77.5646 45.8433H78.5528H79.541V44.8551V43.8669H78.5528H77.5646V44.8551V45.8433ZM71.9175 44.4316H72.9057H73.894V43.4433V42.4551H72.9057H71.9175V43.4433V44.4316ZM77.5646 44.4316H78.5528H79.541V43.4433V42.4551H78.5528H77.5646V43.4433V44.4316ZM71.9175 43.0198H72.9057H73.894V42.0316V41.0433H72.9057H71.9175V42.0316V43.0198ZM77.5646 43.0198H78.5528H79.541V42.0316V41.0433H78.5528H77.5646V42.0316V43.0198ZM71.9175 41.608H72.9057H73.894V40.6198V39.6316H72.9057H71.9175V40.6198V41.608ZM77.5646 41.608H78.5528H79.541V40.6198V39.6316H78.5528H77.5646V40.6198V41.608ZM71.9175 40.1963H72.9057H73.894V39.208V38.2198H72.9057H71.9175V39.208V40.1963ZM77.5646 40.1963H78.5528H79.541V39.208V38.2198H78.5528H77.5646V39.208V40.1963ZM71.9175 38.7845H72.9057H73.894V37.7963V36.808H72.9057H71.9175V37.7963V38.7845ZM77.5646 38.7845H78.5528H79.541V37.7963V36.808H78.5528H77.5646V37.7963V38.7845ZM71.9175 37.3727H72.9057H73.894V36.3845V35.3963H72.9057H71.9175V36.3845V37.3727ZM73.3293 37.3727H74.3175H75.3057V36.3845V35.3963H74.3175H73.3293V36.3845V37.3727ZM77.5646 37.3727H78.5528H79.541V36.3845V35.3963H78.5528H77.5646V36.3845V37.3727ZM71.9175 35.961H72.9057H73.894V34.9727V33.9845H72.9057H71.9175V34.9727V35.961ZM74.741 35.961H75.7293H76.7175V34.9727V33.9845H75.7293H74.741V34.9727V35.961ZM76.1528 35.961H77.141H78.1293V34.9727V33.9845H77.141H76.1528V34.9727V35.961ZM83.2199 45.8433H84.2081H85.1964V44.8551V43.8669H84.2081H83.2199V44.8551V45.8433ZM84.6317 45.8433H85.6199H86.6081V44.8551V43.8669H85.6199H84.6317V44.8551V45.8433ZM86.0434 45.8433H87.0317H88.0199V44.8551V43.8669H87.0317H86.0434V44.8551V45.8433ZM81.8081 44.4316H82.7964H83.7846V43.4433V42.4551H82.7964H81.8081V43.4433V44.4316ZM87.4552 44.4316H88.4434H89.4317V43.4433V42.4551H88.4434H87.4552V43.4433V44.4316ZM81.8081 43.0198H82.7964H83.7846V42.0316V41.0433H82.7964H81.8081V42.0316V43.0198ZM87.4552 43.0198H88.4434H89.4317V42.0316V41.0433H88.4434H87.4552V42.0316V43.0198ZM81.8081 41.608H82.7964H83.7846V40.6198V39.6316H82.7964H81.8081V40.6198V41.608ZM87.4552 41.608H88.4434H89.4317V40.6198V39.6316H88.4434H87.4552V40.6198V41.608ZM81.8081 40.1963H82.7964H83.7846V39.208V38.2198H82.7964H81.8081V39.208V40.1963ZM87.4552 40.1963H88.4434H89.4317V39.208V38.2198H88.4434H87.4552V39.208V40.1963ZM81.8081 38.7845H82.7964H83.7846V37.7963V36.808H82.7964H81.8081V37.7963V38.7845ZM87.4552 38.7845H88.4434H89.4317V37.7963V36.808H88.4434H87.4552V37.7963V38.7845ZM81.8081 37.3727H82.7964H83.7846V36.3845V35.3963H82.7964H81.8081V36.3845V37.3727ZM87.4552 37.3727H88.4434H89.4317V36.3845V35.3963H88.4434H87.4552V36.3845V37.3727ZM83.2199 35.961H84.2081H85.1964V34.9727V33.9845H84.2081H83.2199V34.9727V35.961ZM84.6317 35.961H85.6199H86.6081V34.9727V33.9845H85.6199H84.6317V34.9727V35.961ZM86.0434 35.961H87.0317H88.0199V34.9727V33.9845H87.0317H86.0434V34.9727V35.961ZM91.6988 45.8433H92.687H93.6752V44.8551V43.8669H92.687H91.6988V44.8551V45.8433ZM97.3458 45.8433H98.3341H99.3223V44.8551V43.8669H98.3341H97.3458V44.8551V45.8433ZM102.993 45.8433H103.981H104.969V44.8551V43.8669H103.981H102.993V44.8551V45.8433ZM91.6988 44.4316H92.687H93.6752V43.4433V42.4551H92.687H91.6988V43.4433V44.4316ZM97.3458 44.4316H98.3341H99.3223V43.4433V42.4551H98.3341H97.3458V43.4433V44.4316ZM102.993 44.4316H103.981H104.969V43.4433V42.4551H103.981H102.993V43.4433V44.4316ZM91.6988 43.0198H92.687H93.6752V42.0316V41.0433H92.687H91.6988V42.0316V43.0198ZM97.3458 43.0198H98.3341H99.3223V42.0316V41.0433H98.3341H97.3458V42.0316V43.0198ZM102.993 43.0198H103.981H104.969V42.0316V41.0433H103.981H102.993V42.0316V43.0198ZM91.6988 41.608H92.687H93.6752V40.6198V39.6316H92.687H91.6988V40.6198V41.608ZM97.3458 41.608H98.3341H99.3223V40.6198V39.6316H98.3341H97.3458V40.6198V41.608ZM102.993 41.608H103.981H104.969V40.6198V39.6316H103.981H102.993V40.6198V41.608ZM91.6988 40.1963H92.687H93.6752V39.208V38.2198H92.687H91.6988V39.208V40.1963ZM97.3458 40.1963H98.3341H99.3223V39.208V38.2198H98.3341H97.3458V39.208V40.1963ZM102.993 40.1963H103.981H104.969V39.208V38.2198H103.981H102.993V39.208V40.1963ZM91.6988 38.7845H92.687H93.6752V37.7963V36.808H92.687H91.6988V37.7963V38.7845ZM97.3458 38.7845H98.3341H99.3223V37.7963V36.808H98.3341H97.3458V37.7963V38.7845ZM102.993 38.7845H103.981H104.969V37.7963V36.808H103.981H102.993V37.7963V38.7845ZM91.6988 37.3727H92.687H93.6752V36.3845V35.3963H92.687H91.6988V36.3845V37.3727ZM93.1105 37.3727H94.0988H95.087V36.3845V35.3963H94.0988H93.1105V36.3845V37.3727ZM97.3458 37.3727H98.3341H99.3223V36.3845V35.3963H98.3341H97.3458V36.3845V37.3727ZM98.7576 37.3727H99.7458H100.734V36.3845V35.3963H99.7458H98.7576V36.3845V37.3727ZM102.993 37.3727H103.981H104.969V36.3845V35.3963H103.981H102.993V36.3845V37.3727ZM91.6988 35.961H92.687H93.6752V34.9727V33.9845H92.687H91.6988V34.9727V35.961ZM94.5223 35.961H95.5105H96.4988V34.9727V33.9845H95.5105H94.5223V34.9727V35.961ZM95.9341 35.961H96.9223H97.9105V34.9727V33.9845H96.9223H95.9341V34.9727V35.961ZM100.169 35.961H101.158H102.146V34.9727V33.9845H101.158H100.169V34.9727V35.961ZM101.581 35.961H102.569H103.558V34.9727V33.9845H102.569H101.581V34.9727V35.961ZM105.12 50.0786H106.108H107.097V49.0904V48.1022H106.108H105.12V49.0904V50.0786ZM106.532 50.0786H107.52H108.508V49.0904V48.1022H107.52H106.532V49.0904V50.0786ZM107.944 50.0786H108.932H109.92V49.0904V48.1022H108.932H107.944V49.0904V50.0786ZM108.65 48.6669H109.638H110.626V47.6786V46.6904H109.638H108.65V47.6786V48.6669ZM109.355 47.2551H110.344H111.332V46.2669V45.2786H110.344H109.355V46.2669V47.2551ZM108.65 45.8433H109.638H110.626V44.8551V43.8669H109.638H108.65V44.8551V45.8433ZM110.061 45.8433H111.05H112.038V44.8551V43.8669H111.05H110.061V44.8551V45.8433ZM107.944 44.4316H108.932H109.92V43.4433V42.4551H108.932H107.944V43.4433V44.4316ZM110.767 44.4316H111.755H112.744V43.4433V42.4551H111.755H110.767V43.4433V44.4316ZM107.238 43.0198H108.226H109.214V42.0316V41.0433H108.226H107.238V42.0316V43.0198ZM111.473 43.0198H112.461H113.45V42.0316V41.0433H112.461H111.473V42.0316V43.0198ZM106.532 41.608H107.52H108.508V40.6198V39.6316H107.52H106.532V40.6198V41.608ZM112.179 41.608H113.167H114.155V40.6198V39.6316H113.167H112.179V40.6198V41.608ZM106.532 40.1963H107.52H108.508V39.208V38.2198H107.52H106.532V39.208V40.1963ZM112.179 40.1963H113.167H114.155V39.208V38.2198H113.167H112.179V39.208V40.1963ZM106.532 38.7845H107.52H108.508V37.7963V36.808H107.52H106.532V37.7963V38.7845ZM112.179 38.7845H113.167H114.155V37.7963V36.808H113.167H112.179V37.7963V38.7845ZM106.532 37.3727H107.52H108.508V36.3845V35.3963H107.52H106.532V36.3845V37.3727ZM112.179 37.3727H113.167H114.155V36.3845V35.3963H113.167H112.179V36.3845V37.3727ZM106.532 35.961H107.52H108.508V34.9727V33.9845H107.52H106.532V34.9727V35.961ZM112.179 35.961H113.167H114.155V34.9727V33.9845H113.167H112.179V34.9727V35.961Z" fill="#7600D2"/>
<path d="M33.8906 3.87805C23.3845 3.87805 14.6859 11.108 12.2006 20.8233H1.41211L0 26.4718H11.3533C11.3533 28.4487 11.7487 30.3127 12.2571 32.1202H1.12969L0.0564843 37.7686H14.5165C18.4704 44.4902 25.6439 49.0655 33.9471 49.0655C38.0704 49.0655 41.9113 47.8793 45.2439 45.9023V39.0113C42.2502 41.7225 38.3528 43.417 33.9471 43.417C28.92 43.417 24.5142 41.2142 21.4075 37.7686H33.9471L34.8508 32.1202H18.075C17.4536 30.3127 17.0018 28.5052 17.0018 26.4718H35.8675L36.7713 20.8233H18.075C20.3908 14.2712 26.6041 9.52648 33.9471 9.52648C37.675 9.52648 41.0641 10.7126 43.8318 12.6896L44.7355 6.70227C41.5159 4.95125 37.901 3.87805 33.9471 3.87805H33.8906Z" fill="#7600D2"/>
</svg>
