<svg width="26" height="26" viewBox="0 0 26 26" fill="none" xmlns="http://www.w3.org/2000/svg">
<path d="M15.4004 9.76V13.24H18.5204C18.7604 13.24 18.8804 13.48 18.8804 13.72L18.4004 16C18.4004 16.12 18.1604 16.24 18.0404 16.24H15.4004V25H11.8004V16.36H9.76039C9.52039 16.36 9.40039 16.24 9.40039 16V13.72C9.40039 13.48 9.52039 13.36 9.76039 13.36H11.8004V9.4C11.8004 7.36 13.3604 5.8 15.4004 5.8H18.6404C18.8804 5.8 19.0004 5.92 19.0004 6.16V9.04C19.0004 9.28 18.8804 9.4 18.6404 9.4H15.7604C15.5204 9.4 15.4004 9.52 15.4004 9.76Z" stroke="#6D6D6D" stroke-width="2" stroke-miterlimit="10" stroke-linecap="round"/>
<path d="M16.6 25H9.4C3.4 25 1 22.6 1 16.6V9.4C1 3.4 3.4 1 9.4 1H16.6C22.6 1 25 3.4 25 9.4V16.6C25 22.6 22.6 25 16.6 25Z" stroke="#6D6D6D" stroke-width="2" stroke-linecap="round" stroke-linejoin="round"/>
</svg>
